<?xml version="1.0" encoding="utf-8"?>
<svg width="64px" height="64px" viewBox="0 0 64 64" version="1.1" xmlns:xlink="http://www.w3.org/1999/xlink" xmlns="http://www.w3.org/2000/svg">
  <g id="Group-6" transform="translate(2 2)">
    <g id="Group-5">
      <path d="M46.0008 0L1.99902 0Q1.17093 0 0.585449 0.58548C0.195129 0.975769 -6.10352e-05 1.44696 0 1.99899L0 46.0008C-6.10352e-05 46.5528 0.195129 47.0239 0.585449 47.4142Q1.17093 47.9997 1.99902 47.9998L11.9994 47.9998L11.9994 58.0005C11.9993 58.5524 12.1945 59.0236 12.5848 59.4139C12.9752 59.8042 13.4464 59.9994 13.9984 59.9994L58.0002 59.9994C58.5521 59.9994 59.0233 59.8042 59.4136 59.4139C59.7925 59.035 59.9875 58.5799 59.9986 58.0488Q59.9963 58.1454 59.9846 58.2414Q59.973 58.3374 59.9521 58.4318Q59.9312 58.5262 59.9013 58.6181Q59.8714 58.7101 59.8328 58.7987Q59.7942 58.8873 59.7472 58.9718Q59.7002 59.0563 59.6453 59.1359Q59.5904 59.2155 59.528 59.2894Q59.4657 59.3633 59.3965 59.4308Q59.3273 59.4983 59.2519 59.5589Q59.1765 59.6194 59.0956 59.6724Q59.0147 59.7254 58.9291 59.7703Q58.8435 59.8152 58.754 59.8517Q58.6644 59.8881 58.5718 59.9158Q58.4791 59.9434 58.3842 59.962Q58.2894 59.9806 58.1931 59.9899Q58.0969 59.9992 58.0002 59.9992L13.9985 59.9992Q13.9002 59.9992 13.8025 59.9896Q13.7048 59.98 13.6085 59.9608Q13.5121 59.9417 13.4182 59.9132Q13.3242 59.8846 13.2335 59.8471Q13.1427 59.8095 13.0561 59.7632Q12.9695 59.7169 12.8879 59.6623Q12.8062 59.6078 12.7303 59.5455Q12.6544 59.4832 12.5849 59.4137Q12.5155 59.3443 12.4532 59.2684Q12.3909 59.1925 12.3363 59.1108Q12.2818 59.0292 12.2355 58.9426Q12.1892 58.8559 12.1516 58.7652Q12.114 58.6745 12.0855 58.5805Q12.057 58.4865 12.0379 58.3902Q12.0187 58.2939 12.0091 58.1962Q11.9995 58.0984 11.9995 58.0002L11.9995 13.9984Q11.9995 13.9002 12.0091 13.8025Q12.0187 13.7048 12.0379 13.6084Q12.057 13.5121 12.0855 13.4181Q12.114 13.3242 12.1516 13.2334Q12.1892 13.1427 12.2355 13.0561Q12.2818 12.9695 12.3363 12.8878Q12.3909 12.8062 12.4532 12.7303Q12.5155 12.6544 12.5849 12.5849Q12.6544 12.5155 12.7303 12.4532Q12.8062 12.3909 12.8879 12.3363Q12.9695 12.2818 13.0561 12.2355Q13.1427 12.1892 13.2335 12.1516Q13.3242 12.114 13.4182 12.0855Q13.5121 12.057 13.6085 12.0378Q13.7048 12.0187 13.8025 12.009Q13.9002 11.9994 13.9985 11.9994L47.9998 11.9994L47.9998 11.9997L58.0002 11.9997C58.029 11.9997 58.0576 12.0002 58.086 12.0013Q58.2614 12.0088 58.4328 12.0468Q58.6042 12.0848 58.7664 12.1521Q58.9285 12.2194 59.0765 12.3139Q59.2244 12.4084 59.3536 12.5273C59.3739 12.5461 59.3938 12.5654 59.4136 12.5851C59.4331 12.6046 59.452 12.6242 59.4704 12.644Q59.5927 12.7767 59.6892 12.9292Q59.7858 13.0817 59.8534 13.249Q59.9211 13.4163 59.9577 13.593Q59.9943 13.7697 59.9986 13.9502C59.999 13.9662 59.9991 13.9824 59.9991 13.9987L59.9991 58.0005C59.9991 58.0134 59.999 58.0263 59.9988 58.0391Q59.9992 58.0197 59.9992 58.0002L59.9992 13.9984Q59.9992 13.9743 59.9986 13.9502C59.9881 13.4462 59.812 13.0108 59.4704 12.644Q59.4145 12.5832 59.3536 12.5273C58.9961 12.1949 58.5736 12.0195 58.086 12.0013Q58.0431 11.9994 58.0002 11.9994L47.9998 11.9994L47.9998 1.99899Q47.9997 1.17094 47.4142 0.585419C47.0239 0.195129 46.5527 0 46.0008 0Z" id="Vector-shape-Xor-Difference-Difference" fill="#D3D3D3" fill-opacity="0" fill-rule="evenodd" stroke="currentColor" stroke-width="4" />
    </g>
  </g>
  <g id="T" transform="translate(24 8.999878)">
    <path d="M16.7344 20.2031L16.7344 39L19.9688 39Q21.7031 39 22.4414 39.668Q23.1797 40.3359 23.1797 41.4141Q23.1797 42.4688 22.4414 43.1367Q21.7031 43.8047 19.9688 43.8047L8.71875 43.8047Q6.98438 43.8047 6.24609 43.1367Q5.50781 42.4688 5.50781 41.3906Q5.50781 40.3359 6.24609 39.668Q6.98438 39 8.71875 39L11.9297 39L11.9297 20.2031L6.72656 20.2031L6.72656 24.75Q6.72656 26.4844 6.05859 27.2227Q5.39063 27.9609 4.3125 27.9609Q3.25781 27.9609 2.58984 27.2227Q1.92188 26.4844 1.92188 24.75L1.92188 15.375L26.8125 15.3984L26.8125 24.75Q26.8125 26.4844 26.1445 27.2227Q25.4766 27.9609 24.3984 27.9609Q23.3437 27.9609 22.6758 27.2227Q22.0078 26.4844 22.0078 24.75L22.0078 20.2031L16.7344 20.2031Z" />
  </g>
</svg>