<svg id="Capa_1" enable-background="new 0 0 512 512" height="512" viewBox="0 0 512 512" width="512" xmlns="http://www.w3.org/2000/svg"><g><path d="m361 256c0-57.891-47.109-105-105-105s-105 47.109-105 105 47.109 105 105 105 105-47.109 105-105zm-49.395-19.395-60 60c-2.93 2.93-6.768 4.395-10.605 4.395s-7.676-1.465-10.605-4.395l-30-30c-5.859-5.859-5.859-15.352 0-21.211s15.352-5.859 21.211 0l19.394 19.395 49.395-49.395c5.859-5.859 15.352-5.859 21.211 0s5.859 15.352-.001 21.211z"/><path d="m61 76v170.259c0 116.275 71.959 224.974 180 265.741v-122.516c-67.315-7.573-120-64.177-120-133.484s52.685-125.911 120-133.484v-122.516l-169.746 61.776c-6.123 2.036-10.254 7.764-10.254 14.224z"/><path d="m451 246.259v-170.259c0-6.46-4.131-12.188-10.254-14.224l-169.746-61.776v122.516c67.315 7.573 120 64.177 120 133.484s-52.685 125.911-120 133.484v122.516c108.041-40.767 180-149.466 180-265.741z"/></g></svg>