<svg xmlns="http://www.w3.org/2000/svg" viewBox="0 0 16 16"><path d="M15.707 7.293L14 5.586V3a1 1 0 0 0-1-1h-2.586L8.707.293a1 1 0 0 0-1.414 0L5.586 2H3a1 1 0 0 0-1 1v2.586L.293 7.293a1 1 0 0 0 0 1.414L2 10.414V13a1 1 0 0 0 1 1h2.586l1.707 1.707a.997.997 0 0 0 1.414 0L10.414 14H13a1 1 0 0 0 1-1v-2.586l1.707-1.707a1 1 0 0 0 0-1.414zm-3.414 2A1 1 0 0 0 12 10v2h-2a1 1 0 0 0-.707.293L8 13.586l-1.293-1.293A1 1 0 0 0 6 12H4v-2a1 1 0 0 0-.293-.707L2.414 8l1.293-1.293A1 1 0 0 0 4 6V4h2a1 1 0 0 0 .707-.293L8 2.414l1.293 1.293A1 1 0 0 0 10 4h2v2a1 1 0 0 0 .293.707L13.586 8l-1.293 1.293z"/><path d="M4 8c0 2.206 1.794 4 4 4V4C5.794 4 4 5.794 4 8z"/></svg>