<?xml version="1.0" encoding="utf-8"?>
<svg width="72px" height="68px" viewBox="0 0 72 68" version="1.1" xmlns:xlink="http://www.w3.org/1999/xlink" xmlns="http://www.w3.org/2000/svg">
  <path d="M6.375 0C2.87207 0 0 2.87207 0 6.375L0 44.625C0 48.1279 2.87207 51 6.375 51L34 51L34 46.75L6.375 46.75C5.17969 46.75 4.25 45.8203 4.25 44.625L4.25 37.0049L19.125 22.1299L34.6309 37.6358L37.6191 34.6143L34.8799 31.875L40.2864 26.4685L43.319 29.5011L46.4162 26.404L40.844 20.8318L40.8403 20.8355L40.375 20.3701L31.875 28.8701L19.125 16.1201L4.25 30.9951L4.25 6.37503C4.25 5.17972 5.17969 4.25003 6.375 4.25003L53.125 4.25003C54.3203 4.25003 55.25 5.17972 55.25 6.37503L55.25 22.0257L59.5003 26.276L59.5003 16.3994L59.5 16.3994L59.5 6.375C59.5 2.87207 56.6279 0 53.125 0L6.375 0ZM46.75 8.50003C44.4092 8.50003 42.5 10.4092 42.5 12.75C42.5 15.0908 44.4092 17 46.75 17C49.0908 17 51 15.0908 51 12.75C51 10.4092 49.0908 8.50003 46.75 8.50003ZM61.5231 35.6307L56.2308 30.3384L56.2308 53.2308L53.7693 53.2308L53.7693 30.3384L48.477 35.6307L46.7539 33.9077L55.0001 25.6615L63.2462 33.9077L61.5231 35.6307ZM42.6924 68L67.3078 68C69.4001 68 71.0001 66.4 71.0001 64.3077L71.0001 42.1539C71.0001 40.0615 69.4001 38.4615 67.3078 38.4615L58.6924 38.4615L58.6924 40.9231L67.3078 40.9231C68.0463 40.9231 68.5386 41.4154 68.5386 42.1539L68.5386 64.3077C68.5386 65.0462 68.0463 65.5385 67.3078 65.5385L42.6924 65.5385C41.954 65.5385 41.4617 65.0462 41.4617 64.3077L41.4617 42.1539C41.4617 41.4154 41.954 40.9231 42.6924 40.9231L51.3078 40.9231L51.3078 38.4615L42.6924 38.4615C40.6001 38.4615 39.0001 40.0615 39.0001 42.1539L39.0001 64.3077C39.0001 66.4 40.6001 68 42.6924 68ZM59.4999 44.6645L59.4999 42.1001L59.5 42.1001L59.5 44.625C59.5 44.6382 59.4999 44.6514 59.4999 44.6645Z" id="Shape-Difference-Difference-Difference-Difference-Difference-Union-Union-Difference-Difference-Union" fill="currentColor" fill-rule="evenodd" stroke="none" />
  <g id="T" transform="translate(13.999878 27.000122)">
    <path d="M6.37451 7.45117L6.37451 14.5L7.5874 14.5Q8.23779 14.5 8.51465 14.7505Q8.7915 15.001 8.7915 15.4053Q8.7915 15.8008 8.51465 16.0513Q8.23779 16.3018 7.5874 16.3018L3.36865 16.3018Q2.71826 16.3018 2.44141 16.0513Q2.16455 15.8008 2.16455 15.3965Q2.16455 15.001 2.44141 14.7505Q2.71826 14.5 3.36865 14.5L4.57275 14.5L4.57275 7.45117L2.62158 7.45117L2.62158 9.15625Q2.62158 9.80664 2.37109 10.0835Q2.12061 10.3604 1.71631 10.3604Q1.3208 10.3604 1.07031 10.0835Q0.819824 9.80664 0.819824 9.15625L0.819824 5.64063L10.1538 5.64941L10.1538 9.15625Q10.1538 9.80664 9.90332 10.0835Q9.65283 10.3604 9.24854 10.3604Q8.85303 10.3604 8.60254 10.0835Q8.35205 9.80664 8.35205 9.15625L8.35205 7.45117L6.37451 7.45117Z" />
  </g>
</svg>