<?xml version="1.0" encoding="utf-8"?>
<svg width="78px" height="70px" viewBox="0 0 78 70" version="1.1" xmlns:xlink="http://www.w3.org/1999/xlink" xmlns="http://www.w3.org/2000/svg">
  <path d="M0 6.375C0 2.87207 2.87207 0 6.375 0L53.125 0C56.6279 0 59.5 2.87207 59.5 6.375L59.5 36.9843L53.8554 39.8603L40.375 26.3799L34.8799 31.8751L37.6191 34.6143L34.6309 37.6358L19.125 22.1299L4.25 37.0049L4.25 44.6251C4.25 45.8204 5.17969 46.7501 6.375 46.7501L35.7984 46.7501C35.2884 47.7212 34.9999 48.8269 34.9999 49.9999C34.9999 50.3395 35.0241 50.6734 35.0708 51L6.375 51C2.87207 51 0 48.128 0 44.625L0 6.375ZM53.125 4.25003L6.375 4.25003C5.17969 4.25003 4.25 5.17972 4.25 6.37503L4.25 30.9952L19.125 16.1202L31.875 28.8702L40.375 20.3702L55.25 35.2452L55.25 6.37503C55.25 5.17972 54.3203 4.25003 53.125 4.25003ZM42.5 12.75C42.5 10.4092 44.4092 8.50004 46.75 8.50004C49.0908 8.50004 51 10.4092 51 12.75C51 15.0909 49.0908 17 46.75 17C44.4092 17 42.5 15.0909 42.5 12.75ZM59.4999 40.3513L59.5 40.3513L59.5 44.625C59.5 44.6382 59.5 44.6514 59.4999 44.6646L59.4999 40.3513Z" id="Shape-Difference-Difference-Difference" fill="currentColor" fill-rule="evenodd" stroke="none" />
  <g id="icons8_share_1" transform="translate(38 29.99997)">
    <path d="M33.3333 0C29.6484 0 26.6667 2.98177 26.6667 6.66667C26.6667 7.12891 26.7318 7.58463 26.8229 8.02083L11.6667 15.625C10.4427 14.2253 8.67188 13.3333 6.66667 13.3333C2.98177 13.3333 0 16.3151 0 20C0 23.6849 2.98177 26.6667 6.66667 26.6667C8.67188 26.6667 10.4427 25.7747 11.6667 24.375L26.8229 31.9792C26.7318 32.4154 26.6667 32.8711 26.6667 33.3333C26.6667 37.0182 29.6484 40 33.3333 40C37.0182 40 40 37.0182 40 33.3333C40 29.6484 37.0182 26.6667 33.3333 26.6667C31.3281 26.6667 29.5573 27.5586 28.3333 28.9583L13.1771 21.3542C13.2682 20.918 13.3333 20.4622 13.3333 20C13.3333 19.5378 13.2682 19.082 13.1771 18.6458L28.3333 11.0417C29.5573 12.4414 31.3281 13.3333 33.3333 13.3333C37.0182 13.3333 40 10.3516 40 6.66667C40 2.98177 37.0182 0 33.3333 0L33.3333 0Z" id="Shape" fill="currentColor" fill-rule="evenodd" stroke="none" />
  </g>
</svg>